<svg width="18" height="21" viewBox="0 0 18 21" fill="none" xmlns="http://www.w3.org/2000/svg">
<path d="M10.6668 2.11268L10.6667 2.1127L10.6705 2.11598L16.6668 7.37269C16.6674 7.37321 16.6679 7.37374 16.6685 7.37426C16.9313 7.60977 17.1413 7.89826 17.2847 8.22076C17.4283 8.54397 17.5017 8.89399 17.5001 9.24769V9.25001V18C17.5001 18.663 17.2367 19.2989 16.7679 19.7678C16.299 20.2366 15.6631 20.5 15.0001 20.5H3.00009C2.33705 20.5 1.70117 20.2366 1.23233 19.7678C0.763487 19.2989 0.500095 18.663 0.500095 18V9.26001H0.500111L0.500079 9.25603C0.497256 8.90093 0.570115 8.54931 0.713806 8.22457C0.857178 7.90055 1.06779 7.61071 1.33166 7.37427L7.3297 2.11598L7.32972 2.116L7.33343 2.11268C7.79178 1.70272 8.38515 1.47607 9.00009 1.47607C9.61504 1.47607 10.2084 1.70272 10.6668 2.11268ZM11.0001 19.5H11.5001V19V14C11.5001 13.6022 11.3421 13.2207 11.0608 12.9393C10.7795 12.658 10.3979 12.5 10.0001 12.5H8.00009C7.60227 12.5 7.22074 12.658 6.93944 12.9393C6.65813 13.2207 6.50009 13.6022 6.50009 14V19V19.5H7.00009H11.0001ZM12.5001 19V19.5H13.0001H15.0001C15.3979 19.5 15.7794 19.342 16.0608 19.0607C16.3421 18.7794 16.5001 18.3978 16.5001 18V9.25001V9.24937C16.4998 9.03639 16.4542 8.82591 16.3663 8.63194C16.2783 8.43797 16.1501 8.26494 15.9901 8.12437L15.9893 8.12372L9.99009 2.87437C9.98996 2.87425 9.98982 2.87413 9.98968 2.87401C9.71601 2.63376 9.36427 2.50127 9.00009 2.50127C8.63591 2.50127 8.28418 2.63376 8.0105 2.87401C8.01037 2.87413 8.01023 2.87425 8.01009 2.87437L2.01084 8.12372L2.0101 8.12437C1.85009 8.26494 1.72186 8.43796 1.63392 8.63194C1.54599 8.82592 1.50037 9.0364 1.50009 9.24937V9.25001V18C1.50009 18.3978 1.65813 18.7794 1.93943 19.0607C2.22074 19.342 2.60227 19.5 3.00009 19.5H5.00009H5.50009V19V14C5.50009 13.337 5.76349 12.7011 6.23233 12.2322C6.70117 11.7634 7.33705 11.5 8.00009 11.5H10.0001C10.6631 11.5 11.299 11.7634 11.7679 12.2322C12.2367 12.7011 12.5001 13.337 12.5001 14V19Z" fill="black" stroke="#5B616E"/>
</svg>
